<?xml version="1.0" ?><svg id="Layer_1" style="enable-background:new 0 0 500 500;" version="1.1" viewBox="0 0 500 500" xml:space="preserve" xmlns="http://www.w3.org/2000/svg" xmlns:xlink="http://www.w3.org/1999/xlink"><style type="text/css">
	.st0{fill:#333333;}
</style><g><path class="st0" d="M334.062,200h-38.125c-3.279,0-5.938,2.658-5.938,5.938v7.125c0,3.279,2.658,5.938,5.938,5.938h38.125   c3.279,0,5.938-2.658,5.938-5.938v-7.125C340,202.658,337.342,200,334.062,200z"/><path class="st0" d="M30.468,328.205c5.618-2.636,8.058-9.39,5.421-15.008l-11.254-23.983c-2.636-5.618-9.39-8.058-15.008-5.421   c-5.618,2.636-8.058,9.39-5.421,15.008l11.254,23.983C18.096,328.401,24.85,330.841,30.468,328.205z"/><path class="st0" d="M36.311,297.514c2.636,5.618,9.39,8.058,15.008,5.421l0,0c5.618-2.636,8.058-9.39,5.422-15.008l-11.255-23.983   c-2.636-5.618-9.39-8.058-15.008-5.421l0,0c-5.618,2.636-8.058,9.39-5.421,15.008L36.311,297.514z"/><path class="st0" d="M118.549,320.189c-0.247-0.739-11.902-31.783-11.902-31.783c-2.219-5.796-8.777-8.722-14.573-6.503l0,0   c-5.795,2.219-8.722,8.777-6.502,14.572c0,0,10.775,28.085,10.847,28.251c0.656,2.494-0.679,5.113-3.154,5.983   c-2.283,0.802-4.971,1.134-7.816,1.485c-10.173,1.255-20.692,2.553-21.97,22.212c-0.172,2.645-2.371,4.676-4.984,4.676   c-0.255,0-0.511-0.019-0.779-0.062c-2.612-0.424-4.38-2.894-4.197-5.535c1.919-27.67,20.645-29.975,30.713-31.217   c0.128-0.218,0.181-0.307,0.309-0.524l-8.307-21.692c-2.028-5.297-1.868-11.079,0.453-16.278c2.32-5.2,6.175-9.333,11.473-11.362   c2.24-0.858,9.842-1.224,9.842-1.224v-70.784C98,194.198,92.816,189,86.61,189h-0.224C80.057,189,75,194.178,75,200.507V264h-7   v-69.057c0-5.526-3.733-10.521-9.143-11.651C51.698,181.798,45,187.351,45,194.331v55.509c4.178,2.138,7.519,5.551,9.539,9.855   l11.254,23.983c2.41,5.135,2.672,10.913,0.737,16.268c-1.935,5.355-5.828,9.627-10.963,12.037   c-2.864,1.344-5.927,2.017-9.005,2.016c0.71,4,0.437,7.559-0.883,11.213c-1.935,5.355-5.828,9.633-10.963,12.043l0,0.001   c-2.862,1.343-5.925,2.02-9.002,2.02c-2.443,0-7.776-1.498-8.034-1.602c0.142,1.177,0.29,2.314,0.446,3.395   c1.544,10.687,9.724,20.821,15.356,26.702c3.506,3.661,5.518,8.515,5.518,13.584L29,486.438c0,3.625,2.938,6.562,6.562,6.562   h66.875c3.625,0,6.563-2.938,6.563-6.562L99,379.509c0-4.25,1.383-8.376,3.941-11.769   C110.875,357.215,123.498,335.038,118.549,320.189z"/><path class="st0" d="M487.053,186.357c-10.876-2.072-28.109-27.448-48.825-29.52c-7.331-0.733-13.944,0.678-19.435,2.803   c-1.51-2.459-3.074-4.721-4.697-6.75c-0.055-0.068-0.113-0.134-0.167-0.203c10.793-10.871,39.175-41.437,40.077-63.075   c1.114-26.737-28.593-56.92-76.497-46.894c-47.903,10.026-85.409,25.251-105.09-5.941c-19.681-31.193-18.543-1.69-6.312,20.052   c10.026,17.825,36.02,33.421,71.669,26.737c35.649-6.685,57.559,6.046,45.675,11.883c-19.248,9.455-47.645-3.972-57.314,19.474   c-4.467-0.371-8.963-0.584-13.46-0.636c2.138-7.105,5.341-12.354,9.183-16.233c-0.199,0.001-0.399,0.002-0.597,0.002   c-32.148,0.002-55.932-16.277-66.406-34.898c-0.061-0.107-1.729-3.116-3.723-7.656c-36.112,7.38-64.57,16.76-77.64-13.266   c-14.018-32.205-15.064-2.706-6.511,19.66c7.012,18.336,27.243,35.327,56.87,30.618c29.627-4.709,46.707,9.197,36.589,14.368   c-16.586,8.476-35.452,11.173-34.71,34.924c-41.821,30.627-57.528,82.469-79.321,100.909   c-19.435,16.445-5.922,22.111-17.124,38.669c-5.666,8.376-6.716,9.054-3.061,18.482l8.449,11.789   c2.258,6.592,6.825,11.493,12.593,15.128c1.478,16.172-24.882,37.602-6.603,33.946c7.841-1.568,11.904-5.154,14.491-8.95   c0.356-0.521,1.166-0.139,0.994,0.468c-2.475,8.763-6.215,35.707,3.083,32.163c11.407-4.349,17.332-21.909,20.338-27.722   c0.63-1.218,2.473-0.741,2.462,0.63c-0.048,6.315-0.407,18.163,2.837,15.444c8.792-7.367,15.048-34.204,29.228-36.485l0,0   c2.958-0.095,24.625-2.562,40.965-3.955c29.705-2.532,48.435-8.921,55.671-18.991c3.669-5.106,4.56-11.349,2.718-19.078   c-0.604-2.533,0.655-5.245,3.107-6.119c2.843-1.013,5.855,0.666,6.552,3.518c2.611,10.692,1.179,19.949-4.257,27.514   c-9.273,12.904-29.273,20.25-62.943,23.12c-10.294,0.877-17.964,1.668-23.673,2.349c-3.63,0.433-6.837,2.557-8.639,5.738   c-13.982,24.683-39.605,68.674-41.134,79.885c-2.241,16.435,32.87-14.941,32.87-14.941l-47.109,69.129   c-2.112,3.934,0.804,8.975,5.253,8.597c0,0,239.983-0.033,284.062-0.033c19.476,0-12.693-51.963-25.06-70.896   c-1.006-1.54,0.771-3.38,2.343-2.424c6.76,4.111,17.348,10.035,26.355,12.81c11.661,3.592-19.375-68.508-27.671-92.757   c-0.842-2.46,1.977-4.531,4.083-3.007c7.126,5.158,43.481,56.787,25.332-10.406c-10.67-39.502-13.848-62.886-15.665-97.848   c-43.135-5.222-42.69-29.109-42.69-29.109c12.365,11.214,24.569,15.613,36.001,16.529c14.219,0.106,21.969-6.959,33.021-9.349   C492.75,202.412,497.929,188.429,487.053,186.357z M188.278,271.783l-12.703,3.159c-3.86,0.96-7.804-1.413-8.764-5.272   l-0.234-0.941c-0.96-3.86,1.413-7.803,5.273-8.764l12.704-3.159c3.86-0.96,7.803,1.413,8.763,5.272l0.234,0.941   C194.511,266.879,192.138,270.823,188.278,271.783z M351,210.908C351,224.766,339.766,236,325.908,236h-22.816   C289.234,236,278,224.766,278,210.908v-3.816C278,193.234,289.234,182,303.092,182h22.816C339.766,182,351,193.234,351,207.092   V210.908z"/><path class="st0" d="M35.884,128.601c-3.179,10.301,0.195,37.939,26.088,42.777c-3.139-3.106-5.086-7.413-5.086-12.178   c0-9.464,7.671-17.135,17.135-17.135c9.463,0,17.135,7.671,17.135,17.135c0,3.823-1.268,7.342-3.384,10.192   c18.706-6.565,23.438-23.521,22.028-33.878c-1.804-13.248-4.523-18.614-5.831-24.581c-1.429-6.521,2.055-11.254,7.235-10.986   c-7.502-6.073-15.644,0.741-15.452,11.433c0.178,9.915-7.188,12.117-7.188,12.117c2.634-15.31-7.413-25.055-11.765-30.123   c-5.765-6.712,3.345-7.979,5.814-22.63c2.043-12.12-14.738-22.512-14.738-22.512c18.729,20.192-14.357,32.454-15.552,47.041   c-1.193,14.56,13.294,12.841,14.651,6.749c6.42,27.821-19.73,32.01-18.084,12.914c0.892-10.345-6.983-16.184-12.499-16.742   c-5.76-0.584-9.302,2.075-9.302,2.075C43.469,98.689,39.36,117.34,35.884,128.601z"/></g></svg>