<?xml version="1.0" ?><svg data-name="Layer 4" id="Layer_4" viewBox="0 0 600 600" xmlns="http://www.w3.org/2000/svg"><title/><path d="M44.34,59.436c15.046,14.1,43.5,51.1,57.479,66.241,13.112,14.776,4.614,35.708-5.368,49.717-7.588,11.268-16.514,22.318-19.291,35.956-.39,1.912,2.184,3.177,3.244,1.368,45-86.363,132.255-87.755,145.882-140.572A1.807,1.807,0,0,0,223,70.76c-15.083,21.652-70.362,60.557-94.645,46.454-49.6-28.807-71.33-63.623-75.307-70.273C42.173,29.27,40.929,14.691,20.527,8.146,1.34,4.16-.862,23.68,14.485,39.062,22.02,46.615,29.886,45.716,44.34,59.436Z" style="fill:#333"/><path d="M127.52,190.51c-2.142,12.255,18.189,20.863,25.393,29.864a1.492,1.492,0,0,0,2.144-.008c5.572-5.79,11.184-11.55,16.662-17.428,1.76-1.888,3.635-4.932,1.86-6.926-17.163-19.284-12.439-23.482-12.439-23.482,2.251-1.536,11.51,5.828,20.858,13.976a5.912,5.912,0,0,0,7.653.093,108.557,108.557,0,0,1,17.648-11.61,5.652,5.652,0,0,0,2.385-7.333c-11.444-21.844,17.155-41.706,37.742-56.6,9.023-9.006.865-21.35,11.488-29.651,5.088-4.762,11.352-8.037,17.013-12.037,1.28-.905.553-3.384-1.156-2.742-10.1,4.358-23.965,8.7-30.466,17.46-2.8,4.3-2.29,13.328-4.639,17.814-4.506,6.961-15.479,13.259-21.9,18.371C186.367,142.328,145.08,153.894,127.52,190.51Z" style="fill:#333"/><path d="M176.986,533.567c4.788,19.332,3.027,37.525,2.163,57.3a1.51,1.51,0,0,0,2.257,1.3c21.343-14.109,69.338-51.309,99.132-81.355a21.143,21.143,0,0,0,6.128-15.014c-.308-52.828,65.628-54.615,105.943-123.137,8.945-15.2,20.549-29.13,35.8-38.545,7.849-5.076,16.859-7.613,25.856-9.754,17.085-5.932,35.025-10.468,50.482-20.172,49.1-32.363,32.394-89.524,65.931-119.664,1.375-1.163-.374-3.055-1.816-2.355-31.757,15.06-44.17,41.208-56.126,72.169A81.972,81.972,0,0,1,497.611,276.9a67.1,67.1,0,0,1-35.677,19.239c-53.556,10.755-63.154,42.5-94.454,85.187-37.573,51.445-45.28,26.592-80.974,49.631-6.593,5.093-11.4,11.586-16.255,18.251-24.843,34.694-50.837-3.935-81.626,43.337-4.945,7.593-17.321,18.219-15.388,27.465C174.137,524.574,175.9,529.032,176.986,533.567Z" style="fill:#333"/><path d="M568.9,590.241a1.511,1.511,0,0,0,2.053-2.052c-14.289-22.068-29.273-43.68-44.757-64.925-2.14-2.979-5.818-3.861-9.317-3.307a2.325,2.325,0,0,1-2.234-3.67c7.719-10.656,25.5-28.957,24.545-34.03-1.423-7.566-22.3,27.484-37.646,8-27.416-35.689-54.825-68.726-86.928-106.5-5.391-5.285-9.782,4.476-13.468,7.47-6.629,6.3-6.489,10.7.426,16.733,28.055,31.078,58.584,60.349,83.919,93.736a1.613,1.613,0,0,1-2.183,2.31c-31.225-20.722-57.252-48.746-84.448-74.334q-3.27-3.219-6.527-6.452c-2.141-2.125-4.163-4.83-7.391-5.12-4.067-.365-6.081,2.9-8.491,5.559a59.7,59.7,0,0,1-9.267,8.437,1.52,1.52,0,0,0-.3,2.356C430.535,490.877,496.481,545.349,568.9,590.241Z" style="fill:#333"/><path d="M506.867,112.866c1.89-2.459,3.595-4.721,5.528-6.9a1.013,1.013,0,0,0,.127-1.476c-1.507-2.17-6.288,3.958-7.4,5.166-11.754,11.808-23.126,26.4-24.323,43.616-.378,4.9,1.076,9.607,2.848,14.105,2.891,8.958,5.636,18.867,2.941,28.2a10.641,10.641,0,0,1-2.521,4.454,1.545,1.545,0,0,0,2.183,2.184c6.244-6.518,12.4-13.833,15.587-22.381C510.379,156.922,483.837,145.888,506.867,112.866Zm-20.1,88.76c.041-.052.084-.1.126-.154Z" style="fill:#333"/><path d="M127.4,422.089c8.157,19.16,19.02,37,26.923,56.285,11.446,30.721,2.457,7.739,38.8-22.019,10.132-8.31,24.158-7.085,36.476-7.09,31.335,4.3,36.838-28.787,59.457-40.866,4.322-2.134,8.9-2.779,13.589-3.617,23.218-3.41,42.736-19.672,56.418-38.488,19.625-27.684,24.713-70.956,58.023-84.512,24.061-9.792,33.308-22.311,37.639-32.06a3.189,3.189,0,0,0-5.11-3.593c-8.7,8.2-17.281,15.319-36.149,21.66-40.492,13.606-49.616,81.529-94.293,77.738a2.608,2.608,0,0,1-1.153-4.815c7.933-4.89,31.946-19.56,45.98-45.383,44.422-81.737,91.409-122.359,35.513-191.378-22.85-28.215-12.22-56.152,1.882-83.376a1.508,1.508,0,0,0-2.357-1.818c-24.4,21.445-44.56,65.3-23.38,91.85,66.944,83.9-6.254,175.036-60.156,182.013-33,8.92-64.983,4.716-93.7,54.847-4.636,8.09-4.54,17.951-7.792,26.651-7.848,21.943-26.388,29.4-47.341,33.391a2.912,2.912,0,0,1-3.452-2.813c-.533-30.869,9.825-61.12,44.072-75.871,6.133-2.642,13.705-3.845,17.8-9.124,55.629-71.677,167.848,8.7,137.943-158.734.192-2.123-4.258-1.939-4.594-.332-1.875,8.094-5.765,30.394-23.776,24.47C186.494,136.076,81.3,303.567,127.4,422.089Zm157.971-66.562c2.428-4.185,8.187-5.071,12.613-4.858,1.79.238,2.463,1.646,2.456,3.283.165,5.742-6.708,8.338-11.556,8.279C285.784,362.074,284.686,358.083,285.371,355.527Z" style="fill:#333"/><path d="M467.723,228.926c3.472-.644,6.354-5.078,5.833-8.3-1.16-7.188-9.383-.347-9.922,4.2C463.529,228.317,465.113,229.34,467.723,228.926Z" style="fill:#333"/><path d="M585.366,168.5c-.409,3.466,1.081,4.623,3.716,4.437,3.515-.339,6.772-4.5,6.535-7.761C595.086,157.919,586.3,164.018,585.366,168.5Z" style="fill:#333"/></svg>