<?xml version="1.0" ?><svg data-name="Layer 4" id="Layer_4" viewBox="0 0 600 600" xmlns="http://www.w3.org/2000/svg"><title/><path d="M587,554.941s-7.027,15.853-21.253,1.872c-6.575-6.462-41.588-37.009-58.914-62.443a8.738,8.738,0,0,1,.74-10.771c4.289-4.762,7.748-8.7,9.714-10.949a2.853,2.853,0,0,0-.184-3.941l-4.981-4.764a2.868,2.868,0,0,0-3.672-.24s-39.31,36.636-44.986,43.606a2.851,2.851,0,0,0-.033,3.556l4.93,6.335a2.845,2.845,0,0,0,4.092.438c3-2.511,7.855-6.677,11.6-9.894a8.726,8.726,0,0,1,11.012-.308A421.989,421.989,0,0,1,556.1,565.924s11.411,9.292,2.85,17.851h0c-2.549,2.769-7.98,6.492-2.855,9.985,6.923,3.579,21.576,6.493,34.036-5.864,10.41-10.325,6.678-26.052,2.781-32.346A3.778,3.778,0,0,0,587,554.941Z" style="fill:#333"/><path d="M482.441,470.179l13.031-12.72a2.741,2.741,0,0,0-.248-4.148c-5.1-3.875-16.944-14.015-38.393-33.3a1.925,1.925,0,0,0-2.688.1c-2.67,2.817-5.907,6.2-9.536,9.932a1.936,1.936,0,0,0,.006,2.7c17.641,18.088,29.54,31.253,35.4,37.394A1.706,1.706,0,0,0,482.441,470.179Z" style="fill:#333"/><path d="M167.926,219.987a2.735,2.735,0,0,0,4.252-.925A119.689,119.689,0,0,1,182.355,201.3a2.561,2.561,0,0,0-.333-3.286C121.953,138.551,94.506,113.1,51.405,63.167a2.542,2.542,0,0,1,3.5-3.652c52.7,40.893,82.5,72.012,137.16,123.539a2.547,2.547,0,0,0,3.552-.017c2.665-2.63,7.881-7.7,12.186-11.38a2.733,2.733,0,0,0,.169-3.992C120.315,78.6,69.807,40.533,6.147,6.106-14.606.2,74.505,145.065,167.926,219.987Z" style="fill:#333"/><path d="M469.958,479.983c-11.523-11.964-23.13-23.25-35.644-35.9a1.934,1.934,0,0,0-2.73-.024c-3.63,3.6-7.407,7.272-11.224,10.894a1.936,1.936,0,0,0-.16,2.629c11.188,13.639,21.184,26.105,30.148,39.379a2.751,2.751,0,0,0,4.2.442l15.368-15A1.717,1.717,0,0,0,469.958,479.983Z" style="fill:#333"/><path d="M411.494,197.8a2.6,2.6,0,0,0,3.953.786c3.613-3,6.48-5.367,8.515-7.045a4.364,4.364,0,0,0,.387-6.373l-16.057-18.387c-4.839-4.485-9.264,3.433-12.935,5.935a2.6,2.6,0,0,0-.006,3.832C398.918,179.847,407.5,190.439,411.494,197.8Z" style="fill:#333"/><path d="M22.075,578.932a4.073,4.073,0,0,0,2.382,6.821l10.375,1.516a8.136,8.136,0,0,0,7.617-3.066c30.973-43.1,90.288-92.2,128.592-142.051-2.24-2.479-8.346-8.09-11.4-10.871a2.512,2.512,0,0,0-3.49.1C108.809,479.643,57.376,525.962,5.339,569.007c-3.151,2.607,1.331,6.938,4.458,4.458,25.235-20.01,49.773-40.983,73.665-62.676a1.015,1.015,0,0,1,1.42,1.448C57.749,541.026,32.694,567.646,22.075,578.932Z" style="fill:#333"/><path d="M541.046,50.173a1.629,1.629,0,0,1,2.262,2.3c-13.6,17.932-50.683,63.924-111.987,119.266a.8.8,0,0,0-.051,1.131c2.653,2.923,5.513,6.756,9.627,3.273,7.586-7.436,27.846-24.728,57.27-30.587,17.415-8.027,86.7-101.106,97.613-141.407-4.515-7.107-93.233,24.017-148.545,79.524a13.32,13.32,0,0,0-3.988,8.8,91.792,91.792,0,0,1-26.178,58.592c-3.38,3.869.076,6.821,2.79,9.618C437.094,146.01,493.573,83.776,541.046,50.173Z" style="fill:#333"/><path d="M324.5,522.892c14.037-30.153,28.4-58.816,28.249-31.9a2.252,2.252,0,0,0,3.789,1.652c28.309-24.852,61.03-61.118,87.528-87.46,1.789-1.839-.646-5.274-2.825-3.661a103.916,103.916,0,0,0-10.2,9c-7.775,7.524-21.836,18.576-30.958,25.73a2.417,2.417,0,0,1-3.593-3.1c5.7-9.978,16.216-25.476,31.715-37.958,1.8-1.755-.032-5.149-2.518-4.326-6.892,3.312-14.533.8-14.72-7.582.993-27.5,13.51-95.011,2.806-142.808-9.41-42.02-42.6-74.521-85.306-90.931a5.25,5.25,0,0,0-7.1,4.267c-.475,3.9-1.853,164.715-1.853,164.715a2,2,0,0,0,3.024,1.72c3.1-1.832,52.35-20.326,63.77-24.512a2.845,2.845,0,0,1,3.821,2.532c.62,12.039-1.347,49.41-47.233,64.653a11.168,11.168,0,0,0-7.648,11.469c4.986,62.437-4.922,103.446-16.311,146.481A2.972,2.972,0,0,0,324.5,522.892Z" style="fill:#333"/><path d="M186.645,385.015a7.629,7.629,0,0,1-10.032,7.429l-4.743-1.571c-2.486-.823-4.32,2.571-2.518,4.326,4.859,5.06,45.956,48.792,32.828,46.176-16.548-10.715-30.57-27.294-45.864-39.849-2.179-1.613-4.614,1.822-2.826,3.663,31.909,29.049,56.036,66.249,90.806,92.148,2,1.387,4.133-.9,3.759-2.89-3.021-16.113-4.2-32.446-4.75-48.805a2.471,2.471,0,0,1,4.851-.753c6.5,23.71,17.962,66.715,28.285,111.749.8,3.381,6,1.95,5.205-1.435-13.292-59.519-22.2-119.464-19.333-180.834a11.7,11.7,0,0,0-7.465-11.38c-14.8-5.789-45.071-22.364-42.481-60.47a3.952,3.952,0,0,1,5.317-3.421c16.052,5.978,32.6,10.8,48.543,16.942,5.566,2.144,16.606,7.636,18.684,13.228,11.922,32.08,5.386,86.378,14.882,90.437,6.661-3.689,10.794-234.616-.2-372.225-.345-4.314-6.771-4.261-7.255.038C287.876,87.117,280.731,164.06,281,248.9a2.289,2.289,0,0,1-4.5.594c-6.111-22.818-7.912-57.939-5.886-91.806a4.2,4.2,0,0,0-6.093-3.984C159.341,207.935,175.444,279.918,186.645,385.015Z" style="fill:#333"/><path d="M468.255,383.979c.485-7.264-9.065-2.446-10.613,1.868-.886,3.375.428,4.728,3.064,4.91C464.234,390.91,468.038,387.237,468.255,383.979Z" style="fill:#333"/></svg>